<?xml version="1.0" encoding="UTF-8" standalone="no"?>
<!DOCTYPE svg PUBLIC "-//W3C//DTD SVG 1.1//EN"
 "http://www.w3.org/Graphics/SVG/1.1/DTD/svg11.dtd">
<!-- Generated by graphviz version 15.1.0 (20260618.0150)
 -->
<!-- Title: component_design Pages: 1 -->
<svg width="4458pt" height="1969pt"
 viewBox="0.00 0.00 4458.00 1969.00" xmlns="http://www.w3.org/2000/svg" xmlns:xlink="http://www.w3.org/1999/xlink">
<g id="graph0" class="graph" transform="scale(2.08333 2.08333) rotate(0) translate(28.8 916.52)">
<title>component_design</title>
<polygon fill="white" stroke="none" points="-28.8,28.8 -28.8,-916.52 2110.8,-916.52 2110.8,28.8 -28.8,28.8"/>
<text xml:space="preserve" text-anchor="start" x="736.12" y="-863.82" font-family="Helvetica,sans-Serif" font-weight="bold" font-size="22.00">SocietyEase &#45; Apartment Association Management System</text>
<text xml:space="preserve" text-anchor="start" x="872.62" y="-850.37" font-family="Helvetica,sans-Serif" font-size="13.00" fill="#64748b">Component / Architecture Design • MAY2026 &#45; Team 084</text>
<g id="clust1" class="cluster">
<title>cluster_client</title>
<path fill="#eff6ff" stroke="#2563eb" stroke-width="2" d="M285,-581.19C285,-581.19 823,-581.19 823,-581.19 829,-581.19 835,-587.19 835,-593.19 835,-593.19 835,-815.2 835,-815.2 835,-821.2 829,-827.2 823,-827.2 823,-827.2 285,-827.2 285,-827.2 279,-827.2 273,-821.2 273,-815.2 273,-815.2 273,-593.19 273,-593.19 273,-587.19 279,-581.19 285,-581.19"/>
<text xml:space="preserve" text-anchor="middle" x="554" y="-809.9" font-family="Helvetica,sans-Serif" font-size="14.00" fill="#1e3a8a">Client &#160;&#45; &#160;Vue 3 SPA &#160;&#160;(Vite &#45; vue&#45;router &#45; axios &#45; Bootstrap 5 &#160;&#160;@ localhost:5173)</text>
</g>
<g id="clust2" class="cluster">
<title>cluster_cross</title>
<path fill="#faf5ff" stroke="#a855f7" stroke-width="2" d="M1294,-739.2C1294,-739.2 1623,-739.2 1623,-739.2 1629,-739.2 1635,-745.2 1635,-751.2 1635,-751.2 1635,-818.7 1635,-818.7 1635,-824.7 1629,-830.7 1623,-830.7 1623,-830.7 1294,-830.7 1294,-830.7 1288,-830.7 1282,-824.7 1282,-818.7 1282,-818.7 1282,-751.2 1282,-751.2 1282,-745.2 1288,-739.2 1294,-739.2"/>
<text xml:space="preserve" text-anchor="middle" x="1458.5" y="-814.35" font-family="Helvetica,sans-Serif" font-size="13.00" fill="#6b21a8">Cross&#45;cutting</text>
</g>
<g id="clust3" class="cluster">
<title>cluster_api</title>
<path fill="#f0fdf4" stroke="#16a34a" stroke-width="2" d="M20,-440.94C20,-440.94 2062,-440.94 2062,-440.94 2068,-440.94 2074,-446.94 2074,-452.94 2074,-452.94 2074,-525.19 2074,-525.19 2074,-531.19 2068,-537.19 2062,-537.19 2062,-537.19 20,-537.19 20,-537.19 14,-537.19 8,-531.19 8,-525.19 8,-525.19 8,-452.94 8,-452.94 8,-446.94 14,-440.94 20,-440.94"/>
<text xml:space="preserve" text-anchor="middle" x="1041" y="-519.89" font-family="Helvetica,sans-Serif" font-size="14.00" fill="#14532d">REST API &#160;&#45; &#160;Flask &#160;&#160;(create_app() factory &#160;&#160;@ localhost:5000, &#160;/api/*)</text>
</g>
<g id="clust4" class="cluster">
<title>cluster_orm</title>
<path fill="#f5f3ff" stroke="#7c3aed" stroke-width="2" d="M875,-138.69C875,-138.69 1203,-138.69 1203,-138.69 1209,-138.69 1215,-144.69 1215,-150.69 1215,-150.69 1215,-384.94 1215,-384.94 1215,-390.94 1209,-396.94 1203,-396.94 1203,-396.94 875,-396.94 875,-396.94 869,-396.94 863,-390.94 863,-384.94 863,-384.94 863,-150.69 863,-150.69 863,-144.69 869,-138.69 875,-138.69"/>
<text xml:space="preserve" text-anchor="middle" x="1039" y="-379.64" font-family="Helvetica,sans-Serif" font-size="14.00" fill="#5b21b6">Domain / ORM &#160;&#45; &#160;Flask&#45;SQLAlchemy &#160;&#160;(models.py)</text>
</g>
<!-- spa_entry -->
<g id="node1" class="node">
<title>spa_entry</title>
<path fill="#dbeafe" stroke="#2563eb" stroke-width="1.2" d="M491.25,-791.45C491.25,-791.45 332.75,-791.45 332.75,-791.45 326.75,-791.45 320.75,-785.45 320.75,-779.45 320.75,-779.45 320.75,-767.45 320.75,-767.45 320.75,-761.45 326.75,-755.45 332.75,-755.45 332.75,-755.45 491.25,-755.45 491.25,-755.45 497.25,-755.45 503.25,-761.45 503.25,-767.45 503.25,-767.45 503.25,-779.45 503.25,-779.45 503.25,-785.45 497.25,-791.45 491.25,-791.45"/>
<text xml:space="preserve" text-anchor="middle" x="412" y="-776.5" font-family="Helvetica,sans-Serif" font-size="11.00">index.html &#160;&#45;&gt; &#160;main.js &#160;&#45;&gt; &#160;App.vue</text>
<text xml:space="preserve" text-anchor="middle" x="412" y="-763" font-family="Helvetica,sans-Serif" font-size="11.00">&lt;router&#45;view&gt; &#160;(routes.js)</text>
</g>
<!-- scr_Home -->
<g id="node2" class="node">
<title>scr_Home</title>
<path fill="#ffffff" stroke="#cbd5e1" stroke-width="1.2" d="M327,-629.19C327,-629.19 297,-629.19 297,-629.19 291,-629.19 285,-623.19 285,-617.19 285,-617.19 285,-605.19 285,-605.19 285,-599.19 291,-593.19 297,-593.19 297,-593.19 327,-593.19 327,-593.19 333,-593.19 339,-599.19 339,-605.19 339,-605.19 339,-617.19 339,-617.19 339,-623.19 333,-629.19 327,-629.19"/>
<text xml:space="preserve" text-anchor="middle" x="312" y="-614.24" font-family="Helvetica,sans-Serif" font-size="11.00">Home</text>
<text xml:space="preserve" text-anchor="middle" x="312" y="-600.74" font-family="Helvetica,sans-Serif" font-size="11.00">/</text>
</g>
<!-- spa_entry&#45;&gt;scr_Home -->
<!-- scr_LoginPage -->
<g id="node3" class="node">
<title>scr_LoginPage</title>
<path fill="#ffffff" stroke="#cbd5e1" stroke-width="1.2" d="M419.88,-629.19C419.88,-629.19 376.12,-629.19 376.12,-629.19 370.12,-629.19 364.12,-623.19 364.12,-617.19 364.12,-617.19 364.12,-605.19 364.12,-605.19 364.12,-599.19 370.12,-593.19 376.12,-593.19 376.12,-593.19 419.88,-593.19 419.88,-593.19 425.88,-593.19 431.88,-599.19 431.88,-605.19 431.88,-605.19 431.88,-617.19 431.88,-617.19 431.88,-623.19 425.88,-629.19 419.88,-629.19"/>
<text xml:space="preserve" text-anchor="middle" x="398" y="-614.24" font-family="Helvetica,sans-Serif" font-size="11.00">LoginPage</text>
<text xml:space="preserve" text-anchor="middle" x="398" y="-600.74" font-family="Helvetica,sans-Serif" font-size="11.00">/login</text>
</g>
<!-- spa_entry&#45;&gt;scr_LoginPage -->
<!-- scr_RegisterPage -->
<g id="node4" class="node">
<title>scr_RegisterPage</title>
<path fill="#ffffff" stroke="#cbd5e1" stroke-width="1.2" d="M527,-629.19C527,-629.19 469,-629.19 469,-629.19 463,-629.19 457,-623.19 457,-617.19 457,-617.19 457,-605.19 457,-605.19 457,-599.19 463,-593.19 469,-593.19 469,-593.19 527,-593.19 527,-593.19 533,-593.19 539,-599.19 539,-605.19 539,-605.19 539,-617.19 539,-617.19 539,-623.19 533,-629.19 527,-629.19"/>
<text xml:space="preserve" text-anchor="middle" x="498" y="-614.24" font-family="Helvetica,sans-Serif" font-size="11.00">RegisterPage</text>
<text xml:space="preserve" text-anchor="middle" x="498" y="-600.74" font-family="Helvetica,sans-Serif" font-size="11.00">/register</text>
</g>
<!-- spa_entry&#45;&gt;scr_RegisterPage -->
<!-- scr_AssociationManager -->
<g id="node5" class="node">
<title>scr_AssociationManager</title>
<path fill="#ffffff" stroke="#cbd5e1" stroke-width="1.2" d="M673.5,-629.19C673.5,-629.19 576.5,-629.19 576.5,-629.19 570.5,-629.19 564.5,-623.19 564.5,-617.19 564.5,-617.19 564.5,-605.19 564.5,-605.19 564.5,-599.19 570.5,-593.19 576.5,-593.19 576.5,-593.19 673.5,-593.19 673.5,-593.19 679.5,-593.19 685.5,-599.19 685.5,-605.19 685.5,-605.19 685.5,-617.19 685.5,-617.19 685.5,-623.19 679.5,-629.19 673.5,-629.19"/>
<text xml:space="preserve" text-anchor="middle" x="625" y="-614.24" font-family="Helvetica,sans-Serif" font-size="11.00">AssociationManager</text>
<text xml:space="preserve" text-anchor="middle" x="625" y="-600.74" font-family="Helvetica,sans-Serif" font-size="11.00">/association_manager</text>
</g>
<!-- spa_entry&#45;&gt;scr_AssociationManager -->
<!-- scr_AddAnnouncement -->
<g id="node6" class="node">
<title>scr_AddAnnouncement</title>
<path fill="#ffffff" stroke="#cbd5e1" stroke-width="1.2" d="M811,-629.19C811,-629.19 723,-629.19 723,-629.19 717,-629.19 711,-623.19 711,-617.19 711,-617.19 711,-605.19 711,-605.19 711,-599.19 717,-593.19 723,-593.19 723,-593.19 811,-593.19 811,-593.19 817,-593.19 823,-599.19 823,-605.19 823,-605.19 823,-617.19 823,-617.19 823,-623.19 817,-629.19 811,-629.19"/>
<text xml:space="preserve" text-anchor="middle" x="767" y="-614.24" font-family="Helvetica,sans-Serif" font-size="11.00">AddAnnouncement</text>
<text xml:space="preserve" text-anchor="middle" x="767" y="-600.74" font-family="Helvetica,sans-Serif" font-size="11.00">/add&#45;announcement</text>
</g>
<!-- spa_entry&#45;&gt;scr_AddAnnouncement -->
<!-- bp_auth -->
<g id="node11" class="node">
<title>bp_auth</title>
<path fill="#dcfce7" stroke="#16a34a" stroke-width="2.2" d="M203.62,-501.44C203.62,-501.44 32.38,-501.44 32.38,-501.44 26.38,-501.44 20.38,-495.44 20.38,-489.44 20.38,-489.44 20.38,-464.94 20.38,-464.94 20.38,-458.94 26.38,-452.94 32.38,-452.94 32.38,-452.94 203.62,-452.94 203.62,-452.94 209.62,-452.94 215.62,-458.94 215.62,-464.94 215.62,-464.94 215.62,-489.44 215.62,-489.44 215.62,-495.44 209.62,-501.44 203.62,-501.44"/>
<text xml:space="preserve" text-anchor="middle" x="118" y="-486.99" font-family="Helvetica,sans-Serif" font-size="11.00">auth</text>
<text xml:space="preserve" text-anchor="middle" x="118" y="-473.49" font-family="Helvetica,sans-Serif" font-size="11.00">/api/auth</text>
<text xml:space="preserve" text-anchor="middle" x="118" y="-459.99" font-family="Helvetica,sans-Serif" font-size="11.00">register, login, /me, change&#45;password</text>
</g>
<!-- scr_LoginPage&#45;&gt;bp_auth -->
<g id="edge7" class="edge">
<title>scr_LoginPage&#45;&gt;bp_auth</title>
<path fill="none" stroke="#16a34a" stroke-width="1.8" d="M372.3,-592.59C365.84,-588.55 358.79,-584.48 352,-581.19 299.39,-555.66 281.48,-560.85 228,-537.19 208.71,-528.65 188.18,-518.07 170.15,-508.24"/>
<polygon fill="#16a34a" stroke="#16a34a" stroke-width="1.8" points="161.49,-503.46 172.42,-504.35 164.14,-504.47 170.44,-507.94 170.24,-508.29 170.05,-508.65 163.75,-505.17 168.07,-512.24 161.49,-503.46"/>
<text xml:space="preserve" text-anchor="middle" x="310.54" y="-547.69" font-family="Helvetica,sans-Serif" font-size="10.00" fill="#166534">POST /login</text>
</g>
<!-- scr_RegisterPage&#45;&gt;bp_auth -->
<g id="edge8" class="edge">
<title>scr_RegisterPage&#45;&gt;bp_auth</title>
<path fill="none" stroke="#16a34a" stroke-width="1.8" d="M467.27,-592.66C459.77,-588.66 451.68,-584.6 444,-581.19 400.44,-561.86 389.65,-554.93 343,-545.19 292.85,-534.71 277.23,-551.39 228,-537.19 205.97,-530.83 183.35,-519.65 164.4,-508.72"/>
<polygon fill="#16a34a" stroke="#16a34a" stroke-width="1.8" points="155.88,-503.64 166.77,-504.89 158.49,-504.74 164.68,-508.41 164.47,-508.76 164.27,-509.1 158.09,-505.42 162.17,-512.62 155.88,-503.64"/>
<text xml:space="preserve" text-anchor="middle" x="420.51" y="-547.69" font-family="Helvetica,sans-Serif" font-size="10.00" fill="#166534">POST /register</text>
</g>
<!-- bp_notices -->
<g id="node16" class="node">
<title>bp_notices</title>
<path fill="#dcfce7" stroke="#16a34a" stroke-width="2.2" d="M1091.25,-501.44C1091.25,-501.44 986.75,-501.44 986.75,-501.44 980.75,-501.44 974.75,-495.44 974.75,-489.44 974.75,-489.44 974.75,-464.94 974.75,-464.94 974.75,-458.94 980.75,-452.94 986.75,-452.94 986.75,-452.94 1091.25,-452.94 1091.25,-452.94 1097.25,-452.94 1103.25,-458.94 1103.25,-464.94 1103.25,-464.94 1103.25,-489.44 1103.25,-489.44 1103.25,-495.44 1097.25,-501.44 1091.25,-501.44"/>
<text xml:space="preserve" text-anchor="middle" x="1039" y="-486.99" font-family="Helvetica,sans-Serif" font-size="11.00">notices</text>
<text xml:space="preserve" text-anchor="middle" x="1039" y="-473.49" font-family="Helvetica,sans-Serif" font-size="11.00">/api/notices</text>
<text xml:space="preserve" text-anchor="middle" x="1039" y="-459.99" font-family="Helvetica,sans-Serif" font-size="11.00">announcements CRUD</text>
</g>
<!-- scr_AssociationManager&#45;&gt;bp_notices -->
<g id="edge9" class="edge">
<title>scr_AssociationManager&#45;&gt;bp_notices</title>
<path fill="none" stroke="#16a34a" stroke-width="1.8" d="M666.91,-592.63C677.3,-588.6 688.47,-584.52 699,-581.19 763.44,-560.81 779.96,-555.55 846.75,-545.19 872.34,-541.22 938.81,-546.42 963,-537.19 978.79,-531.16 993.98,-520.68 1006.57,-510.21"/>
<polygon fill="#16a34a" stroke="#16a34a" stroke-width="1.8" points="1014,-503.72 1009.43,-513.68 1012.15,-505.86 1006.73,-510.59 1006.47,-510.29 1006.21,-509.99 1011.62,-505.26 1003.51,-506.9 1014,-503.72"/>
<text xml:space="preserve" text-anchor="middle" x="880.88" y="-547.69" font-family="Helvetica,sans-Serif" font-size="10.00" fill="#166534">GET / DELETE</text>
</g>
<!-- scr_AddAnnouncement&#45;&gt;bp_notices -->
<g id="edge10" class="edge">
<title>scr_AddAnnouncement&#45;&gt;bp_notices</title>
<path fill="none" stroke="#16a34a" stroke-width="1.8" d="M811.76,-592.71C821.7,-588.88 832.2,-584.86 842,-581.19 895.58,-561.09 912.9,-564.84 963,-537.19 976.85,-529.54 990.85,-519.48 1002.99,-509.84"/>
<polygon fill="#16a34a" stroke="#16a34a" stroke-width="1.8" points="1010.6,-503.63 1005.7,-513.44 1008.68,-505.72 1003.1,-510.26 1002.85,-509.95 1002.6,-509.64 1008.17,-505.1 1000.01,-506.47 1010.6,-503.63"/>
<text xml:space="preserve" text-anchor="middle" x="959.76" y="-547.69" font-family="Helvetica,sans-Serif" font-size="10.00" fill="#166534">POST</text>
</g>
<!-- navbar -->
<g id="node7" class="node">
<title>navbar</title>
<path fill="#ffffff" stroke="#cbd5e1" stroke-width="1.2" d="M629.38,-791.45C629.38,-791.45 540.62,-791.45 540.62,-791.45 534.62,-791.45 528.62,-785.45 528.62,-779.45 528.62,-779.45 528.62,-767.45 528.62,-767.45 528.62,-761.45 534.62,-755.45 540.62,-755.45 540.62,-755.45 629.38,-755.45 629.38,-755.45 635.38,-755.45 641.38,-761.45 641.38,-767.45 641.38,-767.45 641.38,-779.45 641.38,-779.45 641.38,-785.45 635.38,-791.45 629.38,-791.45"/>
<text xml:space="preserve" text-anchor="middle" x="585" y="-776.5" font-family="Helvetica,sans-Serif" font-size="11.00">AssociationNavBar</text>
<text xml:space="preserve" text-anchor="middle" x="585" y="-763" font-family="Helvetica,sans-Serif" font-size="11.00">(shared component)</text>
</g>
<!-- auth_js -->
<g id="node8" class="node">
<title>auth_js</title>
<path fill="#fef9c3" stroke="#ca8a04" stroke-width="1.2" d="M811.12,-791.45C811.12,-791.45 678.88,-791.45 678.88,-791.45 672.88,-791.45 666.88,-785.45 666.88,-779.45 666.88,-779.45 666.88,-767.45 666.88,-767.45 666.88,-761.45 672.88,-755.45 678.88,-755.45 678.88,-755.45 811.12,-755.45 811.12,-755.45 817.12,-755.45 823.12,-761.45 823.12,-767.45 823.12,-767.45 823.12,-779.45 823.12,-779.45 823.12,-785.45 817.12,-791.45 811.12,-791.45"/>
<text xml:space="preserve" text-anchor="middle" x="745" y="-776.5" font-family="Helvetica,sans-Serif" font-size="11.00">utils/auth.js</text>
<text xml:space="preserve" text-anchor="middle" x="745" y="-763" font-family="Helvetica,sans-Serif" font-size="11.00">getApiBase() + token helpers</text>
</g>
<!-- auth_js&#45;&gt;bp_auth -->
<g id="edge11" class="edge">
<title>auth_js&#45;&gt;bp_auth</title>
<path fill="none" stroke="#ca8a04" stroke-dasharray="5,2" d="M763.68,-754.9C805.98,-713.15 900.83,-606.82 840,-545.19 828.9,-533.94 323.7,-540.36 239.49,-537.91"/>
<polygon fill="#ca8a04" stroke="#ca8a04" points="239.71,-534.42 229.51,-537.28 239.27,-541.4 239.71,-534.42"/>
<text xml:space="preserve" text-anchor="middle" x="901.04" y="-607.69" font-family="Helvetica,sans-Serif" font-size="10.00" fill="#a16207">attach JWT Bearer</text>
</g>
<!-- jwt -->
<g id="node9" class="node">
<title>jwt</title>
<path fill="#f3e8ff" stroke="#a855f7" stroke-width="1.2" d="M1470,-797.7C1470,-797.7 1304,-797.7 1304,-797.7 1298,-797.7 1292,-791.7 1292,-785.7 1292,-785.7 1292,-761.2 1292,-761.2 1292,-755.2 1298,-749.2 1304,-749.2 1304,-749.2 1470,-749.2 1470,-749.2 1476,-749.2 1482,-755.2 1482,-761.2 1482,-761.2 1482,-785.7 1482,-785.7 1482,-791.7 1476,-797.7 1470,-797.7"/>
<text xml:space="preserve" text-anchor="middle" x="1387" y="-783.25" font-family="Helvetica,sans-Serif" font-size="11.00">JWTManager</text>
<text xml:space="preserve" text-anchor="middle" x="1387" y="-769.75" font-family="Helvetica,sans-Serif" font-size="11.00">(flask&#45;jwt&#45;extended)</text>
<text xml:space="preserve" text-anchor="middle" x="1387" y="-756.25" font-family="Helvetica,sans-Serif" font-size="11.00">@jwt_required &#45; tokens never expire</text>
</g>
<!-- bp_members -->
<g id="node12" class="node">
<title>bp_members</title>
<path fill="#f8fafc" stroke="#cbd5e1" d="M391.12,-501.44C391.12,-501.44 252.88,-501.44 252.88,-501.44 246.88,-501.44 240.88,-495.44 240.88,-489.44 240.88,-489.44 240.88,-464.94 240.88,-464.94 240.88,-458.94 246.88,-452.94 252.88,-452.94 252.88,-452.94 391.12,-452.94 391.12,-452.94 397.12,-452.94 403.12,-458.94 403.12,-464.94 403.12,-464.94 403.12,-489.44 403.12,-489.44 403.12,-495.44 397.12,-501.44 391.12,-501.44"/>
<text xml:space="preserve" text-anchor="middle" x="322" y="-486.99" font-family="Helvetica,sans-Serif" font-size="11.00">members</text>
<text xml:space="preserve" text-anchor="middle" x="322" y="-473.49" font-family="Helvetica,sans-Serif" font-size="11.00">/api/members</text>
<text xml:space="preserve" text-anchor="middle" x="322" y="-459.99" font-family="Helvetica,sans-Serif" font-size="11.00">apartments + residents CRUD</text>
</g>
<!-- jwt&#45;&gt;bp_members -->
<g id="edge12" class="edge">
<title>jwt&#45;&gt;bp_members</title>
<path fill="none" stroke="#a855f7" stroke-dasharray="5,2" d="M1291.55,-768.45C1204.56,-760.2 1076.91,-735.99 991,-666.19 958.14,-639.49 978.93,-610.09 948,-581.19 918.02,-553.18 903.13,-553.71 863,-545.19 817.06,-535.43 501.54,-549.7 425.92,-539.33"/>
<polygon fill="#a855f7" stroke="#a855f7" points="426.97,-535.97 416.49,-537.48 425.62,-542.84 426.97,-535.97"/>
<text xml:space="preserve" text-anchor="middle" x="984.53" y="-607.69" font-family="Helvetica,sans-Serif" font-size="10.00" fill="#7e22ce">protect</text>
</g>
<!-- cors -->
<g id="node10" class="node">
<title>cors</title>
<path fill="#f3e8ff" stroke="#a855f7" stroke-width="1.2" d="M1612.62,-791.45C1612.62,-791.45 1519.38,-791.45 1519.38,-791.45 1513.38,-791.45 1507.38,-785.45 1507.38,-779.45 1507.38,-779.45 1507.38,-767.45 1507.38,-767.45 1507.38,-761.45 1513.38,-755.45 1519.38,-755.45 1519.38,-755.45 1612.62,-755.45 1612.62,-755.45 1618.62,-755.45 1624.62,-761.45 1624.62,-767.45 1624.62,-767.45 1624.62,-779.45 1624.62,-779.45 1624.62,-785.45 1618.62,-791.45 1612.62,-791.45"/>
<text xml:space="preserve" text-anchor="middle" x="1566" y="-776.5" font-family="Helvetica,sans-Serif" font-size="11.00">Flask&#45;CORS</text>
<text xml:space="preserve" text-anchor="middle" x="1566" y="-763" font-family="Helvetica,sans-Serif" font-size="11.00">origin: localhost:5173</text>
</g>
<!-- cors&#45;&gt;bp_members -->
<g id="edge13" class="edge">
<title>cors&#45;&gt;bp_members</title>
<path fill="none" stroke="#a855f7" stroke-dasharray="5,2" d="M1552.96,-755.13C1539.97,-739.09 1518.62,-715.73 1495,-702.19 1260.34,-567.66 1174.9,-582.55 907,-545.19 855.71,-538.03 507.11,-551.32 425.97,-539.42"/>
<polygon fill="#a855f7" stroke="#a855f7" points="426.98,-536.05 416.48,-537.49 425.59,-542.91 426.98,-536.05"/>
<text xml:space="preserve" text-anchor="middle" x="1359.44" y="-607.69" font-family="Helvetica,sans-Serif" font-size="10.00" fill="#7e22ce">CORS</text>
</g>
<!-- bp_complaints -->
<g id="node13" class="node">
<title>bp_complaints</title>
<path fill="#f8fafc" stroke="#cbd5e1" d="M578.12,-501.44C578.12,-501.44 439.88,-501.44 439.88,-501.44 433.88,-501.44 427.88,-495.44 427.88,-489.44 427.88,-489.44 427.88,-464.94 427.88,-464.94 427.88,-458.94 433.88,-452.94 439.88,-452.94 439.88,-452.94 578.12,-452.94 578.12,-452.94 584.12,-452.94 590.12,-458.94 590.12,-464.94 590.12,-464.94 590.12,-489.44 590.12,-489.44 590.12,-495.44 584.12,-501.44 578.12,-501.44"/>
<text xml:space="preserve" text-anchor="middle" x="509" y="-486.99" font-family="Helvetica,sans-Serif" font-size="11.00">complaints</text>
<text xml:space="preserve" text-anchor="middle" x="509" y="-473.49" font-family="Helvetica,sans-Serif" font-size="11.00">/api/complaints</text>
<text xml:space="preserve" text-anchor="middle" x="509" y="-459.99" font-family="Helvetica,sans-Serif" font-size="11.00">raise / assign / status workflow</text>
</g>
<!-- bp_invoices -->
<g id="node14" class="node">
<title>bp_invoices</title>
<path fill="#f8fafc" stroke="#cbd5e1" d="M765.12,-501.44C765.12,-501.44 626.88,-501.44 626.88,-501.44 620.88,-501.44 614.88,-495.44 614.88,-489.44 614.88,-489.44 614.88,-464.94 614.88,-464.94 614.88,-458.94 620.88,-452.94 626.88,-452.94 626.88,-452.94 765.12,-452.94 765.12,-452.94 771.12,-452.94 777.12,-458.94 777.12,-464.94 777.12,-464.94 777.12,-489.44 777.12,-489.44 777.12,-495.44 771.12,-501.44 765.12,-501.44"/>
<text xml:space="preserve" text-anchor="middle" x="696" y="-486.99" font-family="Helvetica,sans-Serif" font-size="11.00">invoices</text>
<text xml:space="preserve" text-anchor="middle" x="696" y="-473.49" font-family="Helvetica,sans-Serif" font-size="11.00">/api/invoices</text>
<text xml:space="preserve" text-anchor="middle" x="696" y="-459.99" font-family="Helvetica,sans-Serif" font-size="11.00">invoices, bulk&#45;gen, pay, receipt</text>
</g>
<!-- bp_expenses -->
<g id="node15" class="node">
<title>bp_expenses</title>
<path fill="#f8fafc" stroke="#cbd5e1" d="M938,-501.44C938,-501.44 814,-501.44 814,-501.44 808,-501.44 802,-495.44 802,-489.44 802,-489.44 802,-464.94 802,-464.94 802,-458.94 808,-452.94 814,-452.94 814,-452.94 938,-452.94 938,-452.94 944,-452.94 950,-458.94 950,-464.94 950,-464.94 950,-489.44 950,-489.44 950,-495.44 944,-501.44 938,-501.44"/>
<text xml:space="preserve" text-anchor="middle" x="876" y="-486.99" font-family="Helvetica,sans-Serif" font-size="11.00">expenses</text>
<text xml:space="preserve" text-anchor="middle" x="876" y="-473.49" font-family="Helvetica,sans-Serif" font-size="11.00">/api/expenses</text>
<text xml:space="preserve" text-anchor="middle" x="876" y="-459.99" font-family="Helvetica,sans-Serif" font-size="11.00">expense log + monthly P&amp;L</text>
</g>
<!-- orm -->
<g id="node23" class="node">
<title>orm</title>
<path fill="#ede9fe" stroke="#7c3aed" stroke-width="1.2" d="M1116,-361.19C1116,-361.19 962,-361.19 962,-361.19 956,-361.19 950,-355.19 950,-349.19 950,-349.19 950,-324.69 950,-324.69 950,-318.69 956,-312.69 962,-312.69 962,-312.69 1116,-312.69 1116,-312.69 1122,-312.69 1128,-318.69 1128,-324.69 1128,-324.69 1128,-349.19 1128,-349.19 1128,-355.19 1122,-361.19 1116,-361.19"/>
<text xml:space="preserve" text-anchor="middle" x="1039" y="-346.74" font-family="Helvetica,sans-Serif" font-size="11.00">db = SQLAlchemy() &#160;&#45; &#160;db.session</text>
<text xml:space="preserve" text-anchor="middle" x="1039" y="-333.24" font-family="Helvetica,sans-Serif" font-size="11.00">(blueprints call the ORM directly;</text>
<text xml:space="preserve" text-anchor="middle" x="1039" y="-319.74" font-family="Helvetica,sans-Serif" font-size="11.00">no service / repository layer)</text>
</g>
<!-- bp_notices&#45;&gt;orm -->
<g id="edge14" class="edge">
<title>bp_notices&#45;&gt;orm</title>
<path fill="none" stroke="#7c3aed" stroke-width="2" d="M1039,-440.94C1039,-431.34 1039,-420.59 1039,-409.76"/>
<polygon fill="#7c3aed" stroke="#7c3aed" stroke-width="2" points="1042.5,-409.96 1039,-399.96 1035.5,-409.96 1042.5,-409.96"/>
<text xml:space="preserve" text-anchor="middle" x="1103.5" y="-407.44" font-family="Helvetica,sans-Serif" font-size="10.00" fill="#5b21b6"> &#160;all blueprints &#45;&gt; db.session &#160;</text>
</g>
<!-- bp_polls -->
<g id="node17" class="node">
<title>bp_polls</title>
<path fill="#f8fafc" stroke="#cbd5e1" d="M1261.5,-501.44C1261.5,-501.44 1140.5,-501.44 1140.5,-501.44 1134.5,-501.44 1128.5,-495.44 1128.5,-489.44 1128.5,-489.44 1128.5,-464.94 1128.5,-464.94 1128.5,-458.94 1134.5,-452.94 1140.5,-452.94 1140.5,-452.94 1261.5,-452.94 1261.5,-452.94 1267.5,-452.94 1273.5,-458.94 1273.5,-464.94 1273.5,-464.94 1273.5,-489.44 1273.5,-489.44 1273.5,-495.44 1267.5,-501.44 1261.5,-501.44"/>
<text xml:space="preserve" text-anchor="middle" x="1201" y="-486.99" font-family="Helvetica,sans-Serif" font-size="11.00">polls</text>
<text xml:space="preserve" text-anchor="middle" x="1201" y="-473.49" font-family="Helvetica,sans-Serif" font-size="11.00">/api/polls</text>
<text xml:space="preserve" text-anchor="middle" x="1201" y="-459.99" font-family="Helvetica,sans-Serif" font-size="11.00">votes, options, cast, results</text>
</g>
<!-- bp_maintenance -->
<g id="node18" class="node">
<title>bp_maintenance</title>
<path fill="#f8fafc" stroke="#cbd5e1" d="M1409.62,-501.44C1409.62,-501.44 1310.38,-501.44 1310.38,-501.44 1304.38,-501.44 1298.38,-495.44 1298.38,-489.44 1298.38,-489.44 1298.38,-464.94 1298.38,-464.94 1298.38,-458.94 1304.38,-452.94 1310.38,-452.94 1310.38,-452.94 1409.62,-452.94 1409.62,-452.94 1415.62,-452.94 1421.62,-458.94 1421.62,-464.94 1421.62,-464.94 1421.62,-489.44 1421.62,-489.44 1421.62,-495.44 1415.62,-501.44 1409.62,-501.44"/>
<text xml:space="preserve" text-anchor="middle" x="1360" y="-486.99" font-family="Helvetica,sans-Serif" font-size="11.00">maintenance</text>
<text xml:space="preserve" text-anchor="middle" x="1360" y="-473.49" font-family="Helvetica,sans-Serif" font-size="11.00">/api/maintenance</text>
<text xml:space="preserve" text-anchor="middle" x="1360" y="-459.99" font-family="Helvetica,sans-Serif" font-size="11.00">scheduled task CRUD</text>
</g>
<!-- bp_equipment -->
<g id="node19" class="node">
<title>bp_equipment</title>
<path fill="#f8fafc" stroke="#cbd5e1" d="M1565.75,-501.44C1565.75,-501.44 1458.25,-501.44 1458.25,-501.44 1452.25,-501.44 1446.25,-495.44 1446.25,-489.44 1446.25,-489.44 1446.25,-464.94 1446.25,-464.94 1446.25,-458.94 1452.25,-452.94 1458.25,-452.94 1458.25,-452.94 1565.75,-452.94 1565.75,-452.94 1571.75,-452.94 1577.75,-458.94 1577.75,-464.94 1577.75,-464.94 1577.75,-489.44 1577.75,-489.44 1577.75,-495.44 1571.75,-501.44 1565.75,-501.44"/>
<text xml:space="preserve" text-anchor="middle" x="1512" y="-486.99" font-family="Helvetica,sans-Serif" font-size="11.00">equipment</text>
<text xml:space="preserve" text-anchor="middle" x="1512" y="-473.49" font-family="Helvetica,sans-Serif" font-size="11.00">/api/equipment</text>
<text xml:space="preserve" text-anchor="middle" x="1512" y="-459.99" font-family="Helvetica,sans-Serif" font-size="11.00">predictor: risk + forecast</text>
</g>
<!-- bp_health -->
<g id="node20" class="node">
<title>bp_health</title>
<path fill="#f8fafc" stroke="#cbd5e1" d="M1725.25,-501.44C1725.25,-501.44 1614.75,-501.44 1614.75,-501.44 1608.75,-501.44 1602.75,-495.44 1602.75,-489.44 1602.75,-489.44 1602.75,-464.94 1602.75,-464.94 1602.75,-458.94 1608.75,-452.94 1614.75,-452.94 1614.75,-452.94 1725.25,-452.94 1725.25,-452.94 1731.25,-452.94 1737.25,-458.94 1737.25,-464.94 1737.25,-464.94 1737.25,-489.44 1737.25,-489.44 1737.25,-495.44 1731.25,-501.44 1725.25,-501.44"/>
<text xml:space="preserve" text-anchor="middle" x="1670" y="-486.99" font-family="Helvetica,sans-Serif" font-size="11.00">health</text>
<text xml:space="preserve" text-anchor="middle" x="1670" y="-473.49" font-family="Helvetica,sans-Serif" font-size="11.00">/api/health</text>
<text xml:space="preserve" text-anchor="middle" x="1670" y="-459.99" font-family="Helvetica,sans-Serif" font-size="11.00">society health score /100</text>
</g>
<!-- bp_conflicts -->
<g id="node21" class="node">
<title>bp_conflicts</title>
<path fill="#f8fafc" stroke="#cbd5e1" d="M1899.38,-501.44C1899.38,-501.44 1774.62,-501.44 1774.62,-501.44 1768.62,-501.44 1762.62,-495.44 1762.62,-489.44 1762.62,-489.44 1762.62,-464.94 1762.62,-464.94 1762.62,-458.94 1768.62,-452.94 1774.62,-452.94 1774.62,-452.94 1899.38,-452.94 1899.38,-452.94 1905.38,-452.94 1911.38,-458.94 1911.38,-464.94 1911.38,-464.94 1911.38,-489.44 1911.38,-489.44 1911.38,-495.44 1905.38,-501.44 1899.38,-501.44"/>
<text xml:space="preserve" text-anchor="middle" x="1837" y="-486.99" font-family="Helvetica,sans-Serif" font-size="11.00">conflicts</text>
<text xml:space="preserve" text-anchor="middle" x="1837" y="-473.49" font-family="Helvetica,sans-Serif" font-size="11.00">/api/conflicts</text>
<text xml:space="preserve" text-anchor="middle" x="1837" y="-459.99" font-family="Helvetica,sans-Serif" font-size="11.00">anonymous conflict resolver</text>
</g>
<!-- bp_parking -->
<g id="node22" class="node">
<title>bp_parking</title>
<path fill="#f8fafc" stroke="#cbd5e1" d="M2049.75,-501.44C2049.75,-501.44 1948.25,-501.44 1948.25,-501.44 1942.25,-501.44 1936.25,-495.44 1936.25,-489.44 1936.25,-489.44 1936.25,-464.94 1936.25,-464.94 1936.25,-458.94 1942.25,-452.94 1948.25,-452.94 1948.25,-452.94 2049.75,-452.94 2049.75,-452.94 2055.75,-452.94 2061.75,-458.94 2061.75,-464.94 2061.75,-464.94 2061.75,-489.44 2061.75,-489.44 2061.75,-495.44 2055.75,-501.44 2049.75,-501.44"/>
<text xml:space="preserve" text-anchor="middle" x="1999" y="-486.99" font-family="Helvetica,sans-Serif" font-size="11.00">parking</text>
<text xml:space="preserve" text-anchor="middle" x="1999" y="-473.49" font-family="Helvetica,sans-Serif" font-size="11.00">/api/parking</text>
<text xml:space="preserve" text-anchor="middle" x="1999" y="-459.99" font-family="Helvetica,sans-Serif" font-size="11.00">live visitor parking slots</text>
</g>
<!-- models -->
<g id="node24" class="node">
<title>models</title>
<path fill="#ffffff" stroke="#cbd5e1" stroke-width="1.2" d="M1191.38,-239.69C1191.38,-239.69 886.62,-239.69 886.62,-239.69 880.62,-239.69 874.62,-233.69 874.62,-227.69 874.62,-227.69 874.62,-162.69 874.62,-162.69 874.62,-156.69 880.62,-150.69 886.62,-150.69 886.62,-150.69 1191.38,-150.69 1191.38,-150.69 1197.38,-150.69 1203.38,-156.69 1203.38,-162.69 1203.38,-162.69 1203.38,-227.69 1203.38,-227.69 1203.38,-233.69 1197.38,-239.69 1191.38,-239.69"/>
<text xml:space="preserve" text-anchor="middle" x="1039" y="-225.24" font-family="Helvetica,sans-Serif" font-size="11.00">19 models</text>
<text xml:space="preserve" text-anchor="middle" x="1039" y="-211.74" font-family="Helvetica,sans-Serif" font-size="11.00">User &#45; Apartment &#45; Resident &#45; Complaint &#45; ComplaintUpdate</text>
<text xml:space="preserve" text-anchor="middle" x="1039" y="-198.24" font-family="Helvetica,sans-Serif" font-size="11.00">Invoice &#45; Payment &#45; Expense &#45; MaintenanceTask &#45; Announcement</text>
<text xml:space="preserve" text-anchor="middle" x="1039" y="-184.74" font-family="Helvetica,sans-Serif" font-size="11.00">Vote &#45; VoteOption &#45; VoteResponse &#45; EmergencyContact</text>
<text xml:space="preserve" text-anchor="middle" x="1039" y="-171.24" font-family="Helvetica,sans-Serif" font-size="11.00">Equipment &#45; EquipmentServiceLog &#45; SocietyHealthScore</text>
<text xml:space="preserve" text-anchor="middle" x="1039" y="-157.74" font-family="Helvetica,sans-Serif" font-size="11.00">ConflictReport &#45; ParkingSlot</text>
</g>
<!-- orm&#45;&gt;models -->
<!-- db_sqlite -->
<g id="node25" class="node">
<title>db_sqlite</title>
<path fill="#e2e8f0" stroke="#475569" stroke-width="1.6" d="M1085.25,-60.62C1085.25,-63.97 1064.52,-66.69 1039,-66.69 1013.48,-66.69 992.75,-63.97 992.75,-60.62 992.75,-60.62 992.75,-6.06 992.75,-6.06 992.75,-2.72 1013.48,0 1039,0 1064.52,0 1085.25,-2.72 1085.25,-6.06 1085.25,-6.06 1085.25,-60.62 1085.25,-60.62"/>
<path fill="none" stroke="#475569" stroke-width="1.6" d="M1085.25,-60.62C1085.25,-57.28 1064.52,-54.56 1039,-54.56 1013.48,-54.56 992.75,-57.28 992.75,-60.62"/>
<text xml:space="preserve" text-anchor="middle" x="1039" y="-43.14" font-family="Helvetica,sans-Serif" font-size="11.00">SQLite</text>
<text xml:space="preserve" text-anchor="middle" x="1039" y="-29.64" font-family="Helvetica,sans-Serif" font-size="11.00">societyease.db</text>
<text xml:space="preserve" text-anchor="middle" x="1039" y="-16.14" font-family="Helvetica,sans-Serif" font-size="11.00">(db.create_all())</text>
</g>
<!-- models&#45;&gt;db_sqlite -->
<g id="edge15" class="edge">
<title>models&#45;&gt;db_sqlite</title>
<path fill="none" stroke="#475569" stroke-width="2" d="M1039,-138.69C1039,-119.57 1039,-98.38 1039,-80.12"/>
<polygon fill="#475569" stroke="#475569" stroke-width="2" points="1042.5,-80.35 1039,-70.35 1035.5,-80.35 1042.5,-80.35"/>
<text xml:space="preserve" text-anchor="middle" x="1103.12" y="-105.19" font-family="Helvetica,sans-Serif" font-size="10.00"> &#160;SQLAlchemy Core &#45;&gt; SQL &#160;</text>
</g>
<!-- legend -->
<g id="node26" class="node">
<title>legend</title>
<path fill="#f8fafc" stroke="#e2e8f0" stroke-width="1.3" d="M1968.46,-844.72C1968.46,-844.72 1661.54,-844.72 1661.54,-844.72 1655.54,-844.72 1649.54,-838.72 1649.54,-832.72 1649.54,-832.72 1649.54,-714.19 1649.54,-714.19 1649.54,-708.19 1655.54,-702.19 1661.54,-702.19 1661.54,-702.19 1968.46,-702.19 1968.46,-702.19 1974.46,-702.19 1980.46,-708.19 1980.46,-714.19 1980.46,-714.19 1980.46,-832.72 1980.46,-832.72 1980.46,-838.72 1974.46,-844.72 1968.46,-844.72"/>
<text xml:space="preserve" text-anchor="start" x="1791" y="-818.78" font-family="Helvetica,sans-Serif" font-weight="bold" font-size="14.00" fill="#0f172a">Legend</text>
<polygon fill="#e2e8f0" stroke="none" points="1662.5,-808.33 1662.5,-810.33 1967.5,-810.33 1967.5,-808.33 1662.5,-808.33"/>
<path fill="#dcfce7" stroke="none" d="M1670.17,-787.33C1670.17,-787.33 1707.58,-787.33 1707.58,-787.33 1710.92,-787.33 1714.25,-790.66 1714.25,-793.99 1714.25,-793.99 1714.25,-800.66 1714.25,-800.66 1714.25,-803.99 1710.92,-807.33 1707.58,-807.33 1707.58,-807.33 1670.17,-807.33 1670.17,-807.33 1666.83,-807.33 1663.5,-803.99 1663.5,-800.66 1663.5,-800.66 1663.5,-793.99 1663.5,-793.99 1663.5,-790.66 1666.83,-787.33 1670.17,-787.33"/>
<path fill="none" stroke="#16a34a" stroke-width="2" d="M1670.17,-787.33C1670.17,-787.33 1707.58,-787.33 1707.58,-787.33 1710.92,-787.33 1714.25,-790.66 1714.25,-793.99 1714.25,-793.99 1714.25,-800.66 1714.25,-800.66 1714.25,-803.99 1710.92,-807.33 1707.58,-807.33 1707.58,-807.33 1670.17,-807.33 1670.17,-807.33 1666.83,-807.33 1663.5,-803.99 1663.5,-800.66 1663.5,-800.66 1663.5,-793.99 1663.5,-793.99 1663.5,-790.66 1666.83,-787.33 1670.17,-787.33"/>
<text xml:space="preserve" text-anchor="start" x="1720.25" y="-794.83" font-family="Helvetica,sans-Serif" font-size="10.00">backend built </text>
<text xml:space="preserve" text-anchor="start" x="1781" y="-794.83" font-family="Helvetica,sans-Serif" font-weight="bold" font-size="10.00" fill="#166534">AND wired</text>
<text xml:space="preserve" text-anchor="start" x="1832" y="-794.83" font-family="Helvetica,sans-Serif" font-size="10.00"> to a UI screen (auth, notices)</text>
<path fill="#f8fafc" stroke="none" stroke-width="2" d="M1670.17,-765.33C1670.17,-765.33 1707.58,-765.33 1707.58,-765.33 1710.92,-765.33 1714.25,-768.66 1714.25,-771.99 1714.25,-771.99 1714.25,-778.66 1714.25,-778.66 1714.25,-781.99 1710.92,-785.33 1707.58,-785.33 1707.58,-785.33 1670.17,-785.33 1670.17,-785.33 1666.83,-785.33 1663.5,-781.99 1663.5,-778.66 1663.5,-778.66 1663.5,-771.99 1663.5,-771.99 1663.5,-768.66 1666.83,-765.33 1670.17,-765.33"/>
<path fill="none" stroke="#cbd5e1" stroke-width="2" d="M1670.17,-765.33C1670.17,-765.33 1707.58,-765.33 1707.58,-765.33 1710.92,-765.33 1714.25,-768.66 1714.25,-771.99 1714.25,-771.99 1714.25,-778.66 1714.25,-778.66 1714.25,-781.99 1710.92,-785.33 1707.58,-785.33 1707.58,-785.33 1670.17,-785.33 1670.17,-785.33 1666.83,-785.33 1663.5,-781.99 1663.5,-778.66 1663.5,-778.66 1663.5,-771.99 1663.5,-771.99 1663.5,-768.66 1666.83,-765.33 1670.17,-765.33"/>
<text xml:space="preserve" text-anchor="start" x="1720.25" y="-771.58" font-family="Helvetica,sans-Serif" font-size="10.00">backend built, no frontend UI yet (10 of 12)</text>
<polygon fill="#e2e8f0" stroke="none" stroke-width="2" points="1662.5,-762.33 1662.5,-764.33 1967.5,-764.33 1967.5,-762.33 1662.5,-762.33"/>
<text xml:space="preserve" text-anchor="start" x="1667.5" y="-745.03" font-family="Helvetica,sans-Serif" font-weight="bold" font-size="14.00" fill="#16a34a">———</text>
<text xml:space="preserve" text-anchor="start" x="1720.25" y="-745.7" font-family="Helvetica,sans-Serif" font-size="10.00">solid &#160;= &#160;actual HTTP call</text>
<text xml:space="preserve" text-anchor="start" x="1678.38" y="-719.28" font-family="Helvetica,sans-Serif" font-weight="bold" font-size="14.00" fill="#a855f7">&#45; &#45; &#45;</text>
<text xml:space="preserve" text-anchor="start" x="1720.25" y="-719.95" font-family="Helvetica,sans-Serif" font-size="10.00">dashed &#160;= &#160;cross&#45;cutting concern</text>
</g>
</g>
</svg>
